<?xml version="1.0" standalone="no"?>
<!DOCTYPE svg PUBLIC "-//W3C//DTD SVG 20010904//EN"
 "http://www.w3.org/TR/2001/REC-SVG-20010904/DTD/svg10.dtd">
<svg version="1.0" xmlns="http://www.w3.org/2000/svg"
 width="512.000000pt" height="512.000000pt" viewBox="0 0 512.000000 512.000000"
 preserveAspectRatio="xMidYMid meet">

<g transform="translate(0.000000,512.000000) scale(0.100000,-0.100000)"
fill="#000000" stroke="none">
<path d="M2083 5113 l-303 -3 0 -885 0 -885 -890 0 -890 0 0 -262 c0 -145 3
-496 7 -780 l6 -518 884 0 883 0 0 -890 0 -890 328 0 c181 0 532 3 780 7 l452
6 0 884 0 883 890 0 890 0 0 780 0 780 -890 0 -890 0 0 890 0 890 -477 -2
c-263 -2 -614 -4 -780 -5z m897 -1243 l0 -890 890 0 890 0 0 -420 0 -420 -890
0 -890 0 0 -883 0 -884 -272 -6 c-149 -4 -338 -7 -420 -7 l-148 0 0 890 0 890
-885 0 -885 0 0 128 c0 70 -3 259 -7 420 l-6 292 891 0 892 0 0 885 0 885 183
3 c100 1 289 3 420 5 l237 2 0 -890z"/>
</g>
</svg>
